<svg width="921" height="971" viewBox="0 0 921 971" fill="none" xmlns="http://www.w3.org/2000/svg">
<path d="M486.579 -1.38887C485.98 -2.285 484.874 -2.69656 483.835 -2.41003C482.796 -2.1235 482.058 -1.20339 482.003 -0.127031C475.642 124.895 461.038 179.306 417.842 233.482C402.992 192.778 388.323 161.438 368.816 133.287C348.643 104.176 323.374 78.5865 287.587 49.5846C286.885 49.0158 285.931 48.87 285.091 49.2031C284.251 49.5361 283.656 50.2964 283.535 51.1916C275.816 108.226 274.944 150.014 279.776 188.744C284.08 223.252 292.902 255.24 305.326 293.294C279.075 259.656 255.735 237.097 229.585 222.045C200.436 205.267 168.027 197.949 124.687 194.705C123.661 194.628 122.693 195.188 122.247 196.114C121.801 197.041 121.968 198.146 122.669 198.9C156.792 235.626 180.941 265.558 200.533 298.02C219.543 329.515 234.316 363.479 249.718 408.471C169.694 391.773 125.629 394.889 50.0297 409.371C49.1659 409.536 48.4526 410.143 48.1513 410.969C47.85 411.796 48.005 412.719 48.5594 413.402C118.234 499.187 156.386 541.165 216.05 586.399C179.893 601.705 150.006 609.807 118.423 612.762C85.6534 615.828 50.9384 613.366 5.31774 607.52C4.19729 607.377 3.11976 608.002 2.68895 609.047C2.25814 610.091 2.58109 611.294 3.47683 611.982C82.9395 673.037 129.441 707.236 196.213 708.98C157.622 730.06 130.172 747.529 110.932 765.998C90.1743 785.925 79.005 806.982 73.5468 834.8C73.3882 835.608 73.6378 836.442 74.2142 837.031C74.7905 837.619 75.6197 837.886 76.4309 837.744C168.959 821.553 210.329 821.488 263.617 836.922C259.704 847.062 255.374 855.472 251.213 863.554C239.622 886.069 229.339 906.043 233.007 953.792C233.081 954.754 233.703 955.588 234.605 955.934C235.507 956.28 236.527 956.076 237.225 955.409C259.105 934.541 280.392 925.602 301.432 922.532C322.585 919.445 343.587 922.264 365.073 925.161C365.775 925.256 366.483 925.049 367.023 924.592L416.769 882.471L482.646 955.277C483.194 955.883 484.003 956.182 484.813 956.08C485.623 955.978 486.332 955.487 486.712 954.764L539.049 855.324L601.742 924.364C602.136 924.799 602.671 925.081 603.253 925.161C634.645 929.466 661.745 928.308 685.638 926.666C689.091 926.428 692.471 926.182 695.783 925.94C715.484 924.502 732.771 923.24 748.7 925.166C749.979 925.32 751.166 924.478 751.442 923.22C754.257 910.401 754.892 899.974 753.353 890.774C751.807 881.537 748.096 873.705 742.475 866.045C736.89 858.434 729.389 850.958 720.258 842.443C717.184 839.576 713.927 836.592 710.484 833.439C704.455 827.917 697.858 821.875 690.678 815.023C729.572 801.543 759.865 791.662 788.676 789.966C818.256 788.224 846.413 795.116 880.693 816.131C881.585 816.678 882.724 816.612 883.546 815.965C884.368 815.318 884.701 814.227 884.379 813.231C872.429 776.248 859.362 752.037 840.509 735.514C825.766 722.593 807.669 714.537 784.285 708.592C810.262 707.075 831.108 701.59 850.03 690.18C873.801 675.846 894.251 652.328 918.084 616.381C918.639 615.544 918.639 614.456 918.084 613.619C917.529 612.782 916.527 612.358 915.539 612.543C863.202 622.354 828.788 624.662 802.721 619.983C777.969 615.541 760.563 604.764 742.346 587.624C781.722 567.421 811.402 548.861 838.115 525.21C865.531 500.937 889.723 471.389 918.072 429.399C918.616 428.594 918.643 427.547 918.144 426.714C917.644 425.881 916.707 425.413 915.741 425.513C846.927 432.691 805.686 430.017 731.6 415.741C764.246 387.89 787.132 361.703 804.984 329.048C823.529 295.124 836.567 254.355 849.591 197.759C849.772 196.974 849.563 196.15 849.031 195.546C848.498 194.941 847.707 194.63 846.906 194.711C808.997 198.505 779.493 204.061 751.675 219.826C725.124 234.873 700.33 259.088 671.137 299.413C666.643 204.414 675.637 149.158 704.893 52.2495C705.206 51.2141 704.817 50.0951 703.93 49.4764C703.043 48.8577 701.859 48.8796 700.995 49.5307C624.05 107.542 593.132 164.173 565.598 234.993C572.565 156.76 545.748 87.1691 486.579 -1.38887Z" fill="#ABE4FF" stroke="black" stroke-width="5" stroke-linejoin="round"/>
<path d="M286.432 819.729C296.79 818.769 304.721 816.102 310.703 811.951C316.701 807.788 320.637 802.203 323.112 795.596C328.018 782.497 327.209 765.25 325.492 746.713C323.747 727.877 317.18 711.218 307.894 699.513C298.635 687.843 286.531 680.954 273.753 682.108C259.354 682.115 249.053 684.214 241.907 688.088C234.673 692.01 230.767 697.701 229.122 704.576C227.497 711.365 228.092 719.246 229.657 727.623C230.984 734.731 233.039 742.333 235.131 750.068C235.507 751.458 235.884 752.852 236.258 754.249C241.7 774.561 250.104 791.202 259.136 802.622C263.652 808.331 268.354 812.773 272.961 815.707C277.557 818.634 282.164 820.124 286.432 819.729Z" fill="#E3D3C3" stroke="black" stroke-width="3"/>
<path d="M707.432 680.839C717.79 681.799 725.721 684.466 731.703 688.618C737.701 692.781 741.637 698.365 744.112 704.972C749.018 718.071 748.209 735.318 746.492 753.855C744.747 772.691 738.18 789.351 728.894 801.055C719.635 812.725 707.531 819.615 694.753 818.46C680.354 818.453 670.053 816.354 662.907 812.48C655.673 808.559 651.767 802.867 650.122 795.993C648.497 789.203 649.092 781.323 650.657 772.945C651.984 765.837 654.039 758.236 656.131 750.501C656.507 749.111 656.884 747.716 657.258 746.319C662.7 726.007 671.104 709.366 680.136 697.946C684.652 692.238 689.354 687.795 693.961 684.861C698.557 681.934 703.164 680.444 707.432 680.839Z" fill="#E3D3C3" stroke="black" stroke-width="3"/>
<path d="M490.5 968.5C552.933 968.5 609.118 929.461 649.576 867.044C690.049 804.602 715 718.49 715 623.5C715 529.005 710.913 442.805 680.815 380.232C665.723 348.854 644.069 323.361 613.12 305.743C582.198 288.14 542.177 278.5 490.5 278.5C434.731 278.5 392.649 288.128 360.943 305.73C329.19 323.357 308.034 348.879 293.968 380.294C279.928 411.654 272.957 448.874 269.478 489.973C266 531.054 266 576.192 266 623.43V623.5C266 718.49 290.951 804.602 331.424 867.044C371.882 929.461 428.067 968.5 490.5 968.5Z" fill="#E3D3C3" stroke="black" stroke-width="5"/>
<circle cx="384" cy="562.5" r="88" fill="white" stroke="black" stroke-width="5"/>
<path d="M468.936 564.935L472 565.646V562.5C472 539.161 462.729 516.778 446.225 500.275C429.722 483.771 407.339 474.5 384 474.5C360.661 474.5 338.278 483.771 321.775 500.275C305.271 516.778 296 539.161 296 562.5L296 565.646L299.064 564.935L298.5 562.5C299.064 564.935 299.064 564.935 299.065 564.935L299.066 564.935L299.072 564.934L299.099 564.927L299.208 564.902C299.305 564.88 299.451 564.847 299.643 564.803C300.026 564.716 300.595 564.588 301.331 564.425C302.805 564.099 304.949 563.632 307.629 563.072C312.991 561.951 320.489 560.457 329.037 558.963C346.172 555.967 367.369 553 384 553C400.631 553 421.828 555.967 438.963 558.963C447.511 560.457 455.009 561.951 460.371 563.072C463.051 563.632 465.195 564.099 466.669 564.425C467.405 564.588 467.974 564.716 468.357 564.803C468.549 564.847 468.695 564.88 468.792 564.902L468.901 564.927L468.928 564.934L468.934 564.935L468.935 564.935C468.936 564.935 468.936 564.935 469.5 562.5L468.936 564.935Z" fill="#E3D3C3" stroke="black" stroke-width="5"/>
<circle cx="384" cy="563" r="11" fill="black"/>
<circle cx="587" cy="562.5" r="88" fill="white" stroke="black" stroke-width="5"/>
<path d="M671.936 564.935L675 565.646V562.5C675 539.161 665.729 516.778 649.225 500.275C632.722 483.771 610.339 474.5 587 474.5C563.661 474.5 541.278 483.771 524.775 500.275C508.271 516.778 499 539.161 499 562.5L499 565.646L502.064 564.935L501.5 562.5C502.064 564.935 502.064 564.935 502.065 564.935L502.066 564.935L502.072 564.934L502.099 564.927L502.208 564.902C502.305 564.88 502.451 564.847 502.643 564.803C503.026 564.716 503.595 564.588 504.331 564.425C505.805 564.099 507.949 563.632 510.629 563.072C515.991 561.951 523.489 560.457 532.037 558.963C549.172 555.967 570.369 553 587 553C603.631 553 624.828 555.967 641.963 558.963C650.511 560.457 658.009 561.951 663.371 563.072C666.051 563.632 668.195 564.099 669.669 564.425C670.405 564.588 670.974 564.716 671.357 564.803C671.549 564.847 671.695 564.88 671.792 564.902L671.901 564.927L671.928 564.934L671.934 564.935L671.935 564.935C671.936 564.935 671.936 564.935 672.5 562.5L671.936 564.935Z" fill="#E3D3C3" stroke="black" stroke-width="5"/>
<circle cx="587" cy="563" r="11" fill="black"/>
<path d="M460.5 648C472.105 684.994 472.877 708.715 466.138 740.841C463.399 753.9 470.666 767.589 483.999 767.063C486.08 766.981 488.256 766.828 490.563 766.608C501.797 765.535 510.294 756.182 511.561 744.969C518.202 686.19 520.891 683.79 509.5 648" stroke="black" stroke-width="5"/>
<path d="M437.225 878.983C437.363 879.025 437.501 879.062 437.638 879.094C437.547 880.542 437.5 882.012 437.5 883.5C437.5 888.102 439.027 890.821 440.848 893.162C441.289 893.729 441.727 894.255 442.153 894.767C443.486 896.368 444.71 897.838 445.609 900.062C446.375 901.956 447.098 903.943 447.831 905.958C448.081 906.644 448.332 907.334 448.587 908.024C449.577 910.714 450.61 913.393 451.773 915.763C454.022 920.349 457.101 924.5 462 924.5C466.252 924.5 468.711 921.577 470.529 918.206C471.419 916.556 472.222 914.673 473.031 912.78L473.102 912.614C473.945 910.64 474.807 908.634 475.827 906.699C476.702 905.039 477.772 903.461 478.925 901.826C479.133 901.532 479.344 901.235 479.557 900.935C480.509 899.593 481.5 898.198 482.409 896.739C484.66 893.123 486.5 888.974 486.5 883.5C486.5 880.722 486.336 878.005 486.024 875.376C490.084 874.353 493.581 872.484 496.604 869.204C502.047 863.296 505.724 853.026 508.974 835.778C509.449 833.257 509.918 830.988 510.337 828.966C510.934 826.078 511.427 823.693 511.684 821.795C512.112 818.639 512.057 815.883 509.873 814.19C508.862 813.406 507.546 812.983 506.034 812.731C504.51 812.478 502.632 812.375 500.379 812.344C498.138 812.313 495.404 812.352 492.154 812.399C488.945 812.446 485.234 812.5 481 812.5C480.699 812.5 480.397 812.5 480.093 812.5C471.167 812.497 461.289 812.493 453.573 815.151C452.288 815.594 451.051 816.114 449.881 816.725C449.411 816.564 448.92 816.426 448.406 816.314C444.732 815.512 440.042 816.036 434.072 818.061C431.798 818.641 429.758 819.145 427.934 819.595C425.115 820.291 422.815 820.858 420.972 821.384C417.97 822.239 415.78 823.079 414.379 824.474C412.871 825.976 412.49 827.884 412.4 830.17C412.354 831.317 412.381 832.648 412.417 834.165C412.42 834.292 412.423 834.42 412.427 834.549C412.461 835.988 412.5 837.619 412.5 839.5C412.5 844.334 414 847.63 415.992 850.574C416.745 851.686 417.583 852.77 418.413 853.842C418.65 854.148 418.886 854.454 419.12 854.759C420.188 856.153 421.241 857.594 422.202 859.253C424.519 863.248 425.351 864.437 427.812 867.959C429.067 869.754 430.746 872.156 433.261 875.845C434.342 877.432 435.67 878.509 437.225 878.983Z" fill="#C9E988" stroke="#84A979" stroke-width="3"/>
<path d="M381.5 835.5C463.83 804.598 509.126 805.155 588.5 835.5" stroke="black" stroke-width="5"/>
<path d="M433.5 662C392.534 677.542 369.995 677.261 330.5 662" stroke="black" stroke-width="5"/>
<path d="M647.5 662C606.534 677.542 583.995 677.261 544.5 662" stroke="black" stroke-width="5"/>
<path d="M568.042 365C495.824 398.385 454.969 400.738 381.5 378.074" stroke="black" stroke-width="5"/>
<path d="M527.161 344C481.997 364.878 456.447 366.35 410.5 352.176" stroke="black" stroke-width="5"/>
<path d="M369.454 415.987C356.822 415.487 346.381 425.872 346.967 438.532L346.998 439.207C347.514 450.368 356.518 459.29 367.697 459.65C459.217 462.598 516.054 459.791 604.297 448.543C614.224 447.277 622.088 439.271 622.919 429.241C623.474 422.539 623.728 416.82 623.103 412.368C622.59 408.715 620.318 406.285 617.483 404.974C614.74 403.705 611.457 403.451 608.439 403.877C517.833 416.681 460.986 419.61 369.454 415.987Z" fill="#ABE4FF" stroke="black" stroke-width="5"/>
<path d="M374.5 815C357.873 835.926 360.27 846.672 374.5 865" stroke="black" stroke-width="5"/>
<path d="M598 863C614.627 842.074 612.23 831.328 598 813" stroke="black" stroke-width="5"/>
<path d="M530 906.553C530.887 906.553 531.733 906.394 532.436 905.923C533.172 905.428 533.55 904.726 533.742 904.046C533.922 903.406 533.958 902.711 533.969 902.101C533.975 901.79 533.974 901.522 533.974 901.26C533.974 900.915 533.973 900.579 533.986 900.163C534.027 898.854 534.202 897.542 534.882 896.266C535.552 895.006 536.79 893.642 539.196 892.382C545.144 889.266 547.151 882.214 545.412 877.36C544.512 874.848 542.558 872.812 539.576 872.345C536.776 871.906 533.383 872.904 529.512 875.565C526.316 875.709 523.008 877.257 520.7 879.874C518.235 882.668 516.926 886.664 518.04 891.397C519.047 895.679 520.271 899.406 522.083 902.082C523.953 904.844 526.506 906.553 530 906.553Z" fill="#C9E988" stroke="#84A979" stroke-width="3"/>
</svg>
